<?xml version="1.0" encoding="utf-8"?>
<!-- Generator: Adobe Illustrator 19.0.0, SVG Export Plug-In . SVG Version: 6.00 Build 0)  -->
<!DOCTYPE svg PUBLIC "-//W3C//DTD SVG 1.1//EN" "http://www.w3.org/Graphics/SVG/1.1/DTD/svg11.dtd">
<svg version="1.1" id="Layer_1" xmlns="http://www.w3.org/2000/svg" xmlns:xlink="http://www.w3.org/1999/xlink" x="0px" y="0px"
	 width="512px" height="512px" viewBox="-139 51 512 512" style="enable-background:new -139 51 512 512;" xml:space="preserve">
<g>
	<path d="M278.2,115H-42.2c-17.5,0-32.8,12.6-32.8,29.9V466c0,17.4,15.3,32.9,32.8,32.9h320.3c17.6,0,30.8-15.6,30.8-32.9V144.9
		C309,127.6,295.7,115,278.2,115z M44,435h-55V264h55V435z M18.4,238H18c-17.6,0-29-13.1-29-29.5c0-16.7,11.7-29.5,29.7-29.5
		s29,12.7,29.4,29.5C48.1,224.9,36.7,238,18.4,238z M245,435h-55v-93.5c0-22.4-8-37.7-27.9-37.7c-15.2,0-24.2,10.3-28.2,20.3
		c-1.5,3.6-1.9,8.5-1.9,13.5V435H77V264h55v23.8c8-11.4,20.5-27.8,49.6-27.8c36.1,0,63.4,23.8,63.4,75.1V435z"/>
</g>
</svg>
